<svg height="512" viewBox="0 0 64 64" width="512" xmlns="http://www.w3.org/2000/svg"><path d="m25 32v4h-4a1 1 0 0 0 -1 1v6a1 1 0 0 0 1 1h4v4a1 1 0 0 0 1 1h6a1 1 0 0 0 1-1v-4h4a1 1 0 0 0 1-1v-6a1 1 0 0 0 -1-1h-4v-4a1 1 0 0 0 -1-1h-6a1 1 0 0 0 -1 1zm2 5v-4h4v4a1 1 0 0 0 1 1h4v4h-4a1 1 0 0 0 -1 1v4h-4v-4a1 1 0 0 0 -1-1h-4v-4h4a1 1 0 0 0 1-1z"/><path d="m37 27a1 1 0 0 0 0-2h-10a1 1 0 0 0 0 2z"/><path d="m42 34.45v3.1a1 1 0 0 0 2 0v-3.1a1 1 0 0 0 -2 0z"/><path d="m15 34a1 1 0 0 0 -1 1v19a1 1 0 0 0 1 1h22.14a1 1 0 0 0 0-2h-21.14v-18a1 1 0 0 0 -1-1z"/><path d="m61 37a1 1 0 0 0 -1 1v22h-56v-11a1 1 0 0 0 -2 0v12a1 1 0 0 0 1 1h58a1 1 0 0 0 1-1v-23a1 1 0 0 0 -1-1z"/><path d="m61 2h-58a1 1 0 0 0 -1 1v42a1 1 0 0 0 2 0v-33h53a1 1 0 0 0 0-2h-37v-6h40v30a1 1 0 0 0 2 0v-31a1 1 0 0 0 -1-1zm-43 8h-14v-6h14z"/><path d="m33 6a1 1 0 0 0 0 2h23a1 1 0 0 0 0-2z"/><circle cx="7" cy="7" r="1"/><circle cx="11" cy="7" r="1"/><circle cx="15" cy="7" r="1"/><path d="m23 6a1 1 0 0 0 0 2h6a1 1 0 0 0 0-2z"/><path d="m17 18h-1a3 3 0 0 0 -3 3v1h-1a1 1 0 0 0 0 2h1v3a1 1 0 0 0 2 0v-3h1a1 1 0 0 0 0-2h-1v-1a1 1 0 0 1 1-1h1a1 1 0 0 0 0-2z"/><path d="m19 14h-8a5 5 0 0 0 -5 5v8a5 5 0 0 0 5 5h8a5 5 0 0 0 5-5v-8a5 5 0 0 0 -5-5zm3 13a3 3 0 0 1 -3 3h-8a3 3 0 0 1 -3-3v-8a3 3 0 0 1 3-3h8a3 3 0 0 1 3 3z"/><path d="m40 53a5 5 0 0 0 5 5h8a5 5 0 0 0 5-5v-8a5 5 0 0 0 -5-5h-8a5 5 0 0 0 -5 5zm2-8a3 3 0 0 1 3-3h8a3 3 0 0 1 3 3v8a3 3 0 0 1 -3 3h-8a3 3 0 0 1 -3-3z"/><path d="m45.47 52.85a1 1 0 0 0 .53.15 1 1 0 0 0 .45-.11l6-3a1 1 0 0 0 0-1.78l-6-3a1 1 0 0 0 -1.45.89v6a1 1 0 0 0 .47.85zm1.53-5.23 2.76 1.38-2.76 1.38z"/><path d="m53 32a5 5 0 0 0 5-5v-8a5 5 0 0 0 -5-5h-8a5 5 0 0 0 -5 5v8a5 5 0 0 0 5 5zm-11-5v-8a3 3 0 0 1 3-3h8a3 3 0 0 1 3 3v8a3 3 0 0 1 -3 3h-8a3 3 0 0 1 -3-3z"/><path d="m49 27a4 4 0 1 0 -4-4 4 4 0 0 0 4 4zm0-6a2 2 0 1 1 -2 2 2 2 0 0 1 2-2z"/></svg>